<svg width="63" height="15" viewBox="0 0 63 15" fill="none" xmlns="http://www.w3.org/2000/svg">
<path d="M7.63636 4.10938C7.56676 3.86742 7.46899 3.65365 7.34304 3.46804C7.21709 3.27912 7.06297 3.12003 6.88068 2.99077C6.7017 2.85819 6.49621 2.7571 6.2642 2.6875C6.03551 2.6179 5.78196 2.5831 5.50355 2.5831C4.98319 2.5831 4.52581 2.71236 4.13139 2.97088C3.74029 3.2294 3.43537 3.60559 3.21662 4.09943C2.99787 4.58996 2.88849 5.18987 2.88849 5.89915C2.88849 6.60843 2.99621 7.21165 3.21165 7.70881C3.42708 8.20597 3.73201 8.58546 4.12642 8.8473C4.52083 9.10582 4.98651 9.23509 5.52344 9.23509C6.01065 9.23509 6.42661 9.14891 6.77131 8.97656C7.11932 8.8009 7.38447 8.55398 7.56676 8.2358C7.75237 7.91761 7.84517 7.54143 7.84517 7.10724L8.28267 7.17188H5.65767V5.55114H9.91832V6.83381C9.91832 7.72869 9.7294 8.49763 9.35156 9.14062C8.97372 9.7803 8.45336 10.2741 7.79048 10.6222C7.1276 10.9669 6.36861 11.1392 5.51349 11.1392C4.55895 11.1392 3.72041 10.9287 2.99787 10.5078C2.27533 10.0836 1.71188 9.48201 1.30753 8.70312C0.906487 7.92093 0.705966 6.9929 0.705966 5.91903C0.705966 5.09375 0.825284 4.35795 1.06392 3.71165C1.30587 3.06203 1.64394 2.51184 2.07812 2.06108C2.51231 1.61032 3.01776 1.26728 3.59446 1.03196C4.17116 0.796638 4.79593 0.678977 5.46875 0.678977C6.04545 0.678977 6.58239 0.763494 7.07955 0.932528C7.5767 1.09825 8.01752 1.33357 8.40199 1.63849C8.78977 1.94342 9.1063 2.30634 9.35156 2.72727C9.59683 3.14489 9.75426 3.60559 9.82386 4.10938H7.63636ZM13.6731 11.1442C13.1859 11.1442 12.7517 11.0597 12.3706 10.8906C11.9894 10.7183 11.6878 10.4647 11.4657 10.13C11.247 9.7919 11.1376 9.37098 11.1376 8.86719C11.1376 8.44295 11.2155 8.08665 11.3713 7.7983C11.527 7.50994 11.7392 7.27794 12.0076 7.10227C12.2761 6.92661 12.581 6.79403 12.9224 6.70455C13.2671 6.61506 13.6284 6.55208 14.0062 6.51562C14.4503 6.46922 14.8083 6.42614 15.0801 6.38636C15.3519 6.34328 15.5491 6.2803 15.6717 6.19744C15.7943 6.11458 15.8556 5.99195 15.8556 5.82955V5.79972C15.8556 5.48485 15.7562 5.24124 15.5574 5.06889C15.3618 4.89654 15.0834 4.81037 14.7221 4.81037C14.341 4.81037 14.0377 4.89489 13.8123 5.06392C13.5869 5.22964 13.4378 5.43845 13.3649 5.69034L11.4061 5.53125C11.5055 5.06723 11.7011 4.66619 11.9927 4.32812C12.2844 3.98674 12.6606 3.7249 13.1213 3.54261C13.5853 3.35701 14.1222 3.2642 14.7321 3.2642C15.1563 3.2642 15.5623 3.31392 15.9501 3.41335C16.3412 3.51278 16.6876 3.6669 16.9892 3.87571C17.2941 4.08452 17.5344 4.35298 17.71 4.68111C17.8857 5.00592 17.9735 5.39536 17.9735 5.84943V11H15.965V9.94105H15.9054C15.7827 10.1797 15.6187 10.3902 15.4132 10.5724C15.2077 10.7514 14.9608 10.8923 14.6724 10.995C14.3841 11.0945 14.051 11.1442 13.6731 11.1442ZM14.2797 9.68253C14.5912 9.68253 14.8663 9.62121 15.1049 9.49858C15.3436 9.37263 15.5308 9.2036 15.6667 8.99148C15.8026 8.77936 15.8706 8.53906 15.8706 8.2706V7.46023C15.8043 7.50331 15.7131 7.54309 15.5971 7.57955C15.4844 7.61269 15.3568 7.64418 15.2143 7.67401C15.0718 7.70052 14.9293 7.72538 14.7868 7.74858C14.6442 7.76847 14.515 7.78669 14.399 7.80327C14.1504 7.83973 13.9333 7.89773 13.7477 7.97727C13.5621 8.05682 13.4179 8.16454 13.3152 8.30043C13.2124 8.433 13.161 8.59872 13.161 8.79759C13.161 9.08594 13.2654 9.30634 13.4743 9.45881C13.6864 9.60795 13.9548 9.68253 14.2797 9.68253ZM22.4306 11.1243C21.8506 11.1243 21.3252 10.9751 20.8546 10.6768C20.3873 10.3752 20.016 9.93277 19.7409 9.34943C19.4692 8.76278 19.3333 8.04356 19.3333 7.19176C19.3333 6.31676 19.4741 5.58925 19.7559 5.00923C20.0376 4.4259 20.4121 3.99006 20.8794 3.7017C21.3501 3.41004 21.8655 3.2642 22.4256 3.2642C22.8532 3.2642 23.2095 3.33712 23.4945 3.48295C23.7828 3.62547 24.0149 3.80445 24.1905 4.01989C24.3695 4.23201 24.5054 4.44081 24.5982 4.64631H24.6628V0.818182H26.7757V11H24.6877V9.77699H24.5982C24.4988 9.98911 24.3579 10.1996 24.1756 10.4084C23.9966 10.6139 23.763 10.7846 23.4746 10.9205C23.1896 11.0563 22.8416 11.1243 22.4306 11.1243ZM23.1017 9.43892C23.4431 9.43892 23.7315 9.34612 23.9668 9.16051C24.2054 8.97159 24.3877 8.7081 24.5137 8.37003C24.6429 8.03196 24.7076 7.63589 24.7076 7.18182C24.7076 6.72775 24.6446 6.33333 24.5186 5.99858C24.3927 5.66383 24.2104 5.4053 23.9718 5.22301C23.7331 5.04072 23.4431 4.94957 23.1017 4.94957C22.7537 4.94957 22.4604 5.04403 22.2218 5.23295C21.9831 5.42187 21.8025 5.68371 21.6799 6.01847C21.5572 6.35322 21.4959 6.741 21.4959 7.18182C21.4959 7.62595 21.5572 8.0187 21.6799 8.36009C21.8058 8.69815 21.9864 8.9633 22.2218 9.15554C22.4604 9.34446 22.7537 9.43892 23.1017 9.43892ZM31.9574 14.0227C31.2713 14.0227 30.683 13.9283 30.1925 13.7393C29.7053 13.5537 29.3175 13.3002 29.0291 12.9787C28.7408 12.6572 28.5535 12.2959 28.4673 11.8949L30.4261 11.6314C30.4858 11.7839 30.5803 11.9264 30.7095 12.0589C30.8388 12.1915 31.0095 12.2976 31.2216 12.3771C31.437 12.46 31.6989 12.5014 32.0071 12.5014C32.4678 12.5014 32.8473 12.3887 33.1456 12.1634C33.4472 11.9413 33.598 11.5684 33.598 11.0447V9.64773H33.5085C33.4157 9.85985 33.2765 10.0604 33.0909 10.2493C32.9053 10.4382 32.6667 10.5923 32.375 10.7116C32.0833 10.831 31.7353 10.8906 31.331 10.8906C30.7576 10.8906 30.2356 10.758 29.7649 10.4929C29.2976 10.2244 28.9247 9.8151 28.6463 9.26491C28.3712 8.71141 28.2337 8.01207 28.2337 7.1669C28.2337 6.30185 28.3745 5.57931 28.6562 4.99929C28.938 4.41927 29.3125 3.98509 29.7798 3.69673C30.2505 3.40838 30.7659 3.2642 31.326 3.2642C31.7536 3.2642 32.1115 3.33712 32.3999 3.48295C32.6882 3.62547 32.9202 3.80445 33.0959 4.01989C33.2749 4.23201 33.4124 4.44081 33.5085 4.64631H33.5881V3.36364H35.6911V11.0746C35.6911 11.7242 35.532 12.2678 35.2138 12.7053C34.8956 13.1428 34.4548 13.4709 33.8913 13.6896C33.3312 13.9117 32.6866 14.0227 31.9574 14.0227ZM32.0021 9.29972C32.3435 9.29972 32.6319 9.2152 32.8672 9.04616C33.1058 8.87382 33.2881 8.62855 33.4141 8.31037C33.5433 7.98887 33.608 7.6044 33.608 7.15696C33.608 6.70952 33.545 6.32173 33.419 5.99361C33.2931 5.66217 33.1108 5.4053 32.8722 5.22301C32.6335 5.04072 32.3435 4.94957 32.0021 4.94957C31.6541 4.94957 31.3608 5.04403 31.1222 5.23295C30.8835 5.41856 30.7029 5.67708 30.5803 6.00852C30.4576 6.33996 30.3963 6.72277 30.3963 7.15696C30.3963 7.59777 30.4576 7.97893 30.5803 8.30043C30.7062 8.61861 30.8868 8.86553 31.1222 9.04119C31.3608 9.21354 31.6541 9.29972 32.0021 9.29972ZM40.8565 11.1491C40.071 11.1491 39.3949 10.9901 38.8281 10.6719C38.2647 10.3504 37.8305 9.89631 37.5256 9.30966C37.2206 8.7197 37.0682 8.02202 37.0682 7.21662C37.0682 6.43111 37.2206 5.74171 37.5256 5.14844C37.8305 4.55516 38.2597 4.0928 38.8132 3.76136C39.37 3.42992 40.023 3.2642 40.772 3.2642C41.2758 3.2642 41.7448 3.34541 42.179 3.50781C42.6165 3.6669 42.9976 3.9072 43.3224 4.22869C43.6506 4.55019 43.9058 4.95455 44.0881 5.44176C44.2704 5.92566 44.3615 6.49242 44.3615 7.14205V7.72372H37.9134V6.41122H42.3679C42.3679 6.1063 42.3016 5.83617 42.169 5.60085C42.0365 5.36553 41.8525 5.18158 41.6172 5.04901C41.3852 4.91312 41.1151 4.84517 40.8068 4.84517C40.4853 4.84517 40.2003 4.91974 39.9517 5.06889C39.7064 5.21473 39.5142 5.41193 39.375 5.66051C39.2358 5.90578 39.1645 6.17921 39.1612 6.48082V7.72869C39.1612 8.10653 39.2308 8.433 39.37 8.7081C39.5125 8.98319 39.7131 9.19531 39.9716 9.34446C40.2301 9.49361 40.5367 9.56818 40.8913 9.56818C41.1267 9.56818 41.3421 9.53504 41.5376 9.46875C41.7332 9.40246 41.9006 9.30303 42.0398 9.17045C42.179 9.03788 42.285 8.87547 42.358 8.68324L44.3168 8.8125C44.2173 9.28314 44.0135 9.69413 43.7053 10.0455C43.4003 10.3935 43.0059 10.6652 42.522 10.8608C42.0414 11.053 41.4863 11.1491 40.8565 11.1491ZM49.8054 3.36364V4.95455H45.2067V3.36364H49.8054ZM46.2507 1.53409H48.3686V8.65341C48.3686 8.84896 48.3984 9.00142 48.4581 9.1108C48.5178 9.21686 48.6006 9.29143 48.7067 9.33452C48.8161 9.3776 48.942 9.39915 49.0845 9.39915C49.1839 9.39915 49.2834 9.39086 49.3828 9.37429C49.4822 9.3544 49.5585 9.33949 49.6115 9.32955L49.9446 10.9055C49.8385 10.9387 49.6894 10.9768 49.4972 11.0199C49.3049 11.0663 49.0713 11.0945 48.7962 11.1044C48.2857 11.1243 47.8383 11.0563 47.4538 10.9006C47.0727 10.7448 46.776 10.5028 46.5639 10.1747C46.3518 9.84659 46.2474 9.43229 46.2507 8.93182V1.53409ZM53.467 0.818182V11H51.3491V0.818182H53.467ZM56.4711 13.8636C56.2026 13.8636 55.9507 13.8421 55.7154 13.799C55.4834 13.7592 55.2911 13.7079 55.1387 13.6449L55.6159 12.0639C55.8645 12.1402 56.0882 12.1816 56.2871 12.1882C56.4893 12.1948 56.6633 12.1484 56.8091 12.049C56.9583 11.9496 57.0792 11.7805 57.1721 11.5419L57.2963 11.2188L54.557 3.36364H56.7843L58.3652 8.97159H58.4448L60.0407 3.36364H62.2828L59.3148 11.8253C59.1723 12.2363 58.9784 12.5942 58.7331 12.8991C58.4912 13.2074 58.1846 13.4444 57.8134 13.6101C57.4422 13.7791 56.9947 13.8636 56.4711 13.8636Z" fill="#313237"/>
</svg>
